<mxfile host="Electron" modified="2023-08-10T10:27:07.751Z" agent="Mozilla/5.0 (Windows NT 10.0; Win64; x64) AppleWebKit/537.36 (KHTML, like Gecko) draw.io/21.6.1 Chrome/112.0.5615.204 Electron/24.6.1 Safari/537.36" etag="QEH91fLqgupm3w9YQO4u" version="21.6.1" type="device">
  <diagram name="Seite-1" id="cDsXdrJrQ4I2utGIpANo">
    <mxGraphModel dx="1119" dy="681" grid="1" gridSize="10" guides="1" tooltips="1" connect="1" arrows="1" fold="1" page="1" pageScale="1" pageWidth="827" pageHeight="1169" math="0" shadow="0">
      <root>
        <mxCell id="0" />
        <mxCell id="1" parent="0" />
        <mxCell id="6oDpXGq36o21Km8c_16Y-1" value="Raster Input files" style="rounded=0;whiteSpace=wrap;html=1;" vertex="1" parent="1">
          <mxGeometry x="350" y="230" width="100" height="30" as="geometry" />
        </mxCell>
        <mxCell id="6oDpXGq36o21Km8c_16Y-3" value="root" style="shape=folder;fontStyle=1;tabWidth=110;tabHeight=30;tabPosition=left;html=1;boundedLbl=1;labelInHeader=1;container=1;collapsible=0;whiteSpace=wrap;" vertex="1" parent="1">
          <mxGeometry x="490" y="160" width="140" height="150" as="geometry" />
        </mxCell>
        <mxCell id="6oDpXGq36o21Km8c_16Y-4" value="Scripts&lt;br&gt;Documentation&lt;br&gt;Temporary storage&lt;br&gt;&lt;br&gt;" style="html=1;strokeColor=none;resizeWidth=1;resizeHeight=1;fillColor=none;part=1;connectable=0;allowArrows=0;deletable=0;whiteSpace=wrap;" vertex="1" parent="6oDpXGq36o21Km8c_16Y-3">
          <mxGeometry width="140" height="105" relative="1" as="geometry">
            <mxPoint y="30" as="offset" />
          </mxGeometry>
        </mxCell>
        <mxCell id="6oDpXGq36o21Km8c_16Y-2" value="Input files" style="rounded=0;whiteSpace=wrap;html=1;strokeColor=none;align=left;" vertex="1" parent="6oDpXGq36o21Km8c_16Y-3">
          <mxGeometry x="43" y="110" width="77" height="30" as="geometry" />
        </mxCell>
        <mxCell id="6oDpXGq36o21Km8c_16Y-5" value="Output files" style="rounded=0;whiteSpace=wrap;html=1;" vertex="1" parent="1">
          <mxGeometry x="660" y="230" width="100" height="30" as="geometry" />
        </mxCell>
        <mxCell id="6oDpXGq36o21Km8c_16Y-7" value="&lt;span style=&quot;color: rgb(0, 0, 0); font-family: Helvetica; font-size: 11px; font-style: normal; font-variant-ligatures: normal; font-variant-caps: normal; font-weight: 400; letter-spacing: normal; orphans: 2; text-align: center; text-indent: 0px; text-transform: none; widows: 2; word-spacing: 0px; -webkit-text-stroke-width: 0px; background-color: rgb(255, 255, 255); text-decoration-thickness: initial; text-decoration-style: initial; text-decoration-color: initial; float: none; display: inline !important;&quot;&gt;points to&lt;/span&gt;" style="edgeStyle=orthogonalEdgeStyle;rounded=0;orthogonalLoop=1;jettySize=auto;html=1;exitX=0;exitY=0.5;exitDx=0;exitDy=0;entryX=0.5;entryY=1;entryDx=0;entryDy=0;" edge="1" parent="1" source="6oDpXGq36o21Km8c_16Y-2" target="6oDpXGq36o21Km8c_16Y-1">
          <mxGeometry relative="1" as="geometry" />
        </mxCell>
      </root>
    </mxGraphModel>
  </diagram>
</mxfile>
